<mxfile host="65bd71144e">
    <diagram id="NVSPpe4st9dGn_Il59lh" name="Page-1">
        <mxGraphModel dx="716" dy="428" grid="1" gridSize="10" guides="1" tooltips="1" connect="1" arrows="1" fold="1" page="1" pageScale="1" pageWidth="850" pageHeight="1100" math="0" shadow="0">
            <root>
                <mxCell id="0"/>
                <mxCell id="1" parent="0"/>
                <mxCell id="18" value="My Data Source" style="rounded=1;whiteSpace=wrap;html=1;labelBackgroundColor=none;" parent="1" vertex="1">
                    <mxGeometry x="560" y="420" width="100" height="60" as="geometry"/>
                </mxCell>
                <mxCell id="19" value="Vector Store" style="shape=cylinder3;whiteSpace=wrap;html=1;boundedLbl=1;backgroundOutline=1;size=15;labelBackgroundColor=none;" parent="1" vertex="1">
                    <mxGeometry x="420" y="410" width="60" height="80" as="geometry"/>
                </mxCell>
                <mxCell id="20" value="" style="edgeStyle=none;html=1;labelBackgroundColor=none;" parent="1" source="21" target="19" edge="1">
                    <mxGeometry relative="1" as="geometry"/>
                </mxCell>
                <mxCell id="21" value="My RAG APP" style="rounded=1;whiteSpace=wrap;html=1;labelBackgroundColor=none;" parent="1" vertex="1">
                    <mxGeometry x="250" y="420" width="100" height="60" as="geometry"/>
                </mxCell>
                <mxCell id="22" value="LLM" style="ellipse;shape=cloud;whiteSpace=wrap;html=1;rounded=1;labelBackgroundColor=none;" parent="1" vertex="1">
                    <mxGeometry x="160" y="290" width="120" height="80" as="geometry"/>
                </mxCell>
                <mxCell id="23" value="" style="edgeStyle=none;html=1;labelBackgroundColor=none;" parent="1" source="21" target="22" edge="1">
                    <mxGeometry relative="1" as="geometry"/>
                </mxCell>
                <mxCell id="24" value="" style="edgeStyle=none;html=1;labelBackgroundColor=none;" parent="1" source="18" target="19" edge="1">
                    <mxGeometry relative="1" as="geometry"/>
                </mxCell>
                <mxCell id="25" style="edgeStyle=none;html=1;labelBackgroundColor=none;" parent="1" source="26" edge="1">
                    <mxGeometry relative="1" as="geometry">
                        <mxPoint x="250" y="450" as="targetPoint"/>
                    </mxGeometry>
                </mxCell>
                <mxCell id="26" value="Actor" style="shape=umlActor;verticalLabelPosition=bottom;verticalAlign=top;html=1;outlineConnect=0;labelBackgroundColor=none;" parent="1" vertex="1">
                    <mxGeometry x="120" y="420" width="30" height="60" as="geometry"/>
                </mxCell>
                <mxCell id="28" value="Data Indexing/Preparation" style="shape=callout;whiteSpace=wrap;html=1;perimeter=calloutPerimeter;fillColor=none;position2=0.33;labelBackgroundColor=none;strokeColor=#001DBC;" parent="1" vertex="1">
                    <mxGeometry x="580" y="290" width="120" height="80" as="geometry"/>
                </mxCell>
                <mxCell id="31" value="" style="ellipse;whiteSpace=wrap;html=1;fillColor=none;fontColor=#ffffff;strokeColor=#001DBC;labelBackgroundColor=none;" parent="1" vertex="1">
                    <mxGeometry x="390" y="350" width="280" height="210" as="geometry"/>
                </mxCell>
                <mxCell id="32" value="Inference" style="shape=callout;whiteSpace=wrap;perimeter=calloutPerimeter;fillColor=none;position2=1;labelBackgroundColor=none;html=1;strokeColor=#6F0000;" parent="1" vertex="1">
                    <mxGeometry x="30" y="250" width="120" height="80" as="geometry"/>
                </mxCell>
                <mxCell id="33" value="" style="ellipse;whiteSpace=wrap;html=1;fillColor=none;fontColor=#ffffff;strokeColor=#6F0000;labelBackgroundColor=none;rotation=-45;" parent="1" vertex="1">
                    <mxGeometry x="180" y="260" width="160" height="270" as="geometry"/>
                </mxCell>
                <mxCell id="34" value="&lt;font&gt;Data Retrieval&lt;br&gt;&lt;/font&gt;" style="shape=callout;whiteSpace=wrap;html=1;perimeter=calloutPerimeter;fillColor=none;position2=0.33;size=30;position=0.33;base=20;labelBackgroundColor=none;strokeColor=#B09500;" parent="1" vertex="1">
                    <mxGeometry x="380" y="290" width="120" height="80" as="geometry"/>
                </mxCell>
                <mxCell id="35" value="" style="ellipse;whiteSpace=wrap;html=1;fillColor=none;fontColor=#000000;strokeColor=#B09500;labelBackgroundColor=none;" parent="1" vertex="1">
                    <mxGeometry x="230" y="360" width="280" height="210" as="geometry"/>
                </mxCell>
            </root>
        </mxGraphModel>
    </diagram>
</mxfile>